<svg width="128" height="128" viewBox="-2 8 114 112" xmlns="http://www.w3.org/2000/svg" fill="none">
  <path
    d="M24 12H78C92.3594 12 104 23.6406 104 38V42H95V38C95 28.6112 87.3888 21 78 21H24C14.6112 21 7 28.6112 7 38V92C7 101.389 14.6112 109 24 109H80C89.3888 109 97 101.389 97 92V88H106V92C106 106.359 94.3594 118 80 118H24C9.6406 118 -2 106.359 -2 92V38C-2 23.6406 9.6406 12 24 12Z"
    fill="currentColor"
  />
  <path
    d="M27 44C27 40.6863 29.6863 38 33 38H68C71.3137 38 74 40.6863 74 44C74 47.3137 71.3137 50 68 50H33C29.6863 50 27 47.3137 27 44Z"
    fill="currentColor"
  />
  <path
    d="M27 64C27 60.6863 29.6863 58 33 58H58C61.3137 58 64 60.6863 64 64C64 67.3137 61.3137 70 58 70H33C29.6863 70 27 67.3137 27 64Z"
    fill="currentColor"
  />
  <path
    d="M76.3051 34.5524C79.8365 31.021 85.5629 31.021 89.0943 34.5524L108.448 53.9057C111.979 57.4371 111.979 63.1635 108.448 66.6949L70.3162 104.827L43 110L48.1732 82.6838L86.3051 44.5524L93.3761 51.6234L55.8268 89.1727L53.7729 100.227L64.8273 98.1732L102.377 60.6239L82.3761 40.6235L75.3051 47.6945L68.234 40.6235L76.3051 34.5524Z"
    fill="currentColor"
  />
</svg>
